<svg width="73" height="68" viewBox="0 0 73 68" fill="#FF4F30" xmlns="http://www.w3.org/2000/svg">
<path d="M42.4088 59.6298C48.8013 55.2363 52.8014 47.9579 52.8014 40.0881C52.8014 38.7158 52.6185 37.2033 52.2947 36.1987C54.1348 34.1858 56.112 32.6277 58.6873 32.6277C63.7465 32.6277 64.7141 37.571 64.7141 39.4929C64.7141 50.384 56.0205 60.043 46.1346 60.043C44.9383 59.9975 43.3307 59.7663 42.4088 59.6298ZM35.9705 35.2358C35.9705 32.4458 38.3172 30.3381 41.304 30.3381C43.5593 30.3381 46.6374 32.2145 48.1118 35.3268C46.0889 37.6165 43.8336 40.0426 41.0297 40.0426C37.3953 39.9971 35.9705 37.0668 35.9705 35.2358ZM8.28215 33.9545C8.28215 19.4015 17.4824 7.96075 29.2541 7.96075C30.5875 7.96075 31.9209 8.14271 33.0714 8.46494C25.9893 13.6811 21.0672 23.1544 21.0672 33.9545C21.0672 44.7546 25.9893 54.4136 33.2542 59.6298C32.1952 59.8573 31.1399 59.9975 30.0351 59.9975C17.7567 59.9975 8.28215 48.2801 8.28215 33.9545ZM47.6546 15.2354C46.0431 12.9912 44.0659 10.5688 41.6278 8.50663C42.8697 8.18441 44.2488 7.91147 45.5365 7.91147C53.3081 7.91147 59.5635 13.1277 59.5635 17.3848C59.5635 18.939 58.4587 21.4561 55.5634 21.4561C52.3443 21.5054 50.4585 19.1286 47.6546 15.2354ZM45.3079 4.20783C42.5497 4.25332 39.5134 4.98495 37.4905 5.94782C35.6505 5.03044 32.6599 4.20783 29.4865 4.16234H29.0255C15.2271 4.29881 4.41919 17.2521 4.32776 33.818V34.1858C4.41919 50.8465 15.3642 63.8414 29.5779 63.8414C33.0257 63.8414 35.2352 63.2008 37.8105 62.1015C40.3858 63.2008 42.6869 63.8414 46.3174 63.8414C58.3216 63.8414 68.6685 52.4917 68.6685 39.4929C68.6685 35.3268 66.1389 28.7383 58.6873 28.7383C55.5596 28.7383 52.71 30.4783 50.7747 32.4458C48.2908 28.3251 44.5193 26.4487 41.2544 26.4487C36.1038 26.4487 32.0542 30.3381 32.0542 35.2813C32.0542 39.5839 35.4105 43.9775 40.9763 43.9775C44.6107 43.9775 47.0489 41.9645 49.0261 39.8113C49.0261 47.4992 44.1955 54.7321 37.8029 58.0718C30.2142 54.1824 25.0178 44.8911 25.0178 34C25.0178 23.1089 30.1227 13.9541 37.3915 9.97369C40.4277 11.8047 42.4507 14.826 44.4736 17.5705C47.2775 21.4144 50.2223 25.4441 55.5596 25.4441C60.5273 25.4441 63.5179 21.3727 63.5179 17.4795C63.5179 10.5688 55.1024 4.29881 45.765 4.20783H45.3079Z" fill="#FF4F30"/>
</svg>
